<svg width="36" height="36" viewBox="0 0 36 36" fill="none" xmlns="http://www.w3.org/2000/svg">
<g clip-path="url(#clip0_107_282)">
<path d="M22.3333 24H3.66667C3.48986 24 3.32029 23.8946 3.19526 23.7071C3.07024 23.5196 3 23.2652 3 23C3 22.7348 3.07024 22.4804 3.19526 22.2929C3.32029 22.1054 3.48986 22 3.66667 22H22.3333C22.5101 22 22.6797 22.1054 22.8047 22.2929C22.9298 22.4804 23 22.7348 23 23C23 23.2652 22.9298 23.5196 22.8047 23.7071C22.6797 23.8946 22.5101 24 22.3333 24Z"/>
<path d="M32 14H4C3.73478 14 3.48043 13.8946 3.29289 13.7071C3.10536 13.5196 3 13.2652 3 13C3 12.7348 3.10536 12.4804 3.29289 12.2929C3.48043 12.1054 3.73478 12 4 12H32C32.2652 12 32.5196 12.1054 32.7071 12.2929C32.8946 12.4804 33 12.7348 33 13C33 13.2652 32.8946 13.5196 32.7071 13.7071C32.5196 13.8946 32.2652 14 32 14Z"/>
</g>
<defs>
<clipPath id="clip0_107_282">
<rect width="36" height="36" fill="white"/>
</clipPath>
</defs>
</svg>
