<svg width="24" height="24" viewBox="0 0 24 24" fill="none" xmlns="http://www.w3.org/2000/svg">
<path d="M16.6666 8V6.03333C16.6666 5.4205 16.5459 4.81366 16.3114 4.24748C16.0769 3.68129 15.7331 3.16684 15.2998 2.7335C14.8665 2.30016 14.352 1.95642 13.7858 1.72189C13.2196 1.48737 12.6128 1.36666 12 1.36666C11.3871 1.36666 10.7803 1.48737 10.2141 1.72189C9.64792 1.95642 9.13347 2.30016 8.70013 2.7335C8.26679 3.16684 7.92304 3.68129 7.68852 4.24748C7.454 4.81366 7.33329 5.4205 7.33329 6.03333V10.7C7.33329 10.8768 7.40353 11.0464 7.52855 11.1714C7.65358 11.2964 7.82315 11.3667 7.99996 11.3667C8.17677 11.3667 8.34634 11.2964 8.47136 11.1714C8.59639 11.0464 8.66663 10.8768 8.66663 10.7V9.33333H14V8H8.66663V6.03333C8.66663 5.14928 9.01782 4.30143 9.64294 3.67631C10.2681 3.05119 11.1159 2.7 12 2.7C12.884 2.7 13.7319 3.05119 14.357 3.67631C14.9821 4.30143 15.3333 5.14928 15.3333 6.03333V10.6667C15.3333 10.8435 15.4035 11.013 15.5286 11.1381C15.6536 11.2631 15.8231 11.3333 16 11.3333C16.1768 11.3333 16.3463 11.2631 16.4714 11.1381C16.5964 11.013 16.6666 10.8435 16.6666 10.6667V9.33333H20V21.3333H3.99996V9.33333H5.99996V8H2.66663V21.3933C2.66663 21.731 2.80078 22.0549 3.03958 22.2937C3.27837 22.5325 3.60225 22.6667 3.93996 22.6667H20.06C20.3977 22.6667 20.7215 22.5325 20.9603 22.2937C21.1991 22.0549 21.3333 21.731 21.3333 21.3933V8H16.6666Z" />
</svg>
