<svg width="36" height="36" viewBox="0 0 36 36" fill="none" xmlns="http://www.w3.org/2000/svg">
<g clip-path="url(#clip0_119_56)">
<path d="M22.52 6.48001L10.6 18L22.52 29.52C22.8449 29.833 23.2808 30.004 23.7318 29.9956C24.1828 29.9872 24.612 29.7999 24.925 29.475C25.238 29.1501 25.409 28.7142 25.4006 28.2632C25.3922 27.8122 25.2049 27.383 24.88 27.07L15.49 18L24.88 8.92001C25.2049 8.60705 25.3922 8.17785 25.4006 7.72683C25.409 7.2758 25.238 6.8399 24.925 6.51501C24.612 6.19012 24.1828 6.00285 23.7318 5.99441C23.2808 5.98597 22.8449 6.15705 22.52 6.47001L22.52 6.48001Z"/>
</g>
<defs>
<clipPath id="clip0_119_56">
<rect width="36" height="36" fill="white" transform="translate(0 36) rotate(-90)"/>
</clipPath>
</defs>
</svg>
