<svg width="24" height="24" viewBox="0 0 24 24" fill="none" xmlns="http://www.w3.org/2000/svg">
<path fill-rule="evenodd" clip-rule="evenodd" d="M14.5927 10.5469C13.8253 11.0596 12.923 11.3333 12 11.3333C10.7624 11.3333 9.57538 10.8417 8.70021 9.9665C7.82504 9.09133 7.33338 7.90435 7.33338 6.66667C7.33338 5.74369 7.60707 4.84144 8.11985 4.07401C8.63263 3.30658 9.36147 2.70844 10.2142 2.35523C11.0669 2.00202 12.0052 1.90961 12.9105 2.08967C13.8157 2.26974 14.6472 2.71419 15.2999 3.36684C15.9525 4.01948 16.397 4.851 16.577 5.75625C16.7571 6.66149 16.6647 7.5998 16.3115 8.45252C15.9583 9.30525 15.3601 10.0341 14.5927 10.5469ZM13.8519 3.8951C13.3038 3.52883 12.6593 3.33334 12 3.33334C11.116 3.33334 10.2681 3.68452 9.64302 4.30965C9.0179 4.93477 8.66671 5.78261 8.66671 6.66667C8.66671 7.32594 8.86221 7.97041 9.22848 8.51857C9.59475 9.06673 10.1153 9.49397 10.7244 9.74627C11.3335 9.99856 12.0037 10.0646 12.6503 9.93595C13.2969 9.80734 13.8909 9.48987 14.3571 9.02369C14.8232 8.55752 15.1407 7.96357 15.2693 7.31697C15.3979 6.67037 15.3319 6.00014 15.0796 5.39106C14.8273 4.78197 14.4001 4.26137 13.8519 3.8951ZM16.5271 13.6015C17.9559 14.2166 19.2442 15.1167 20.3134 16.2467C20.5427 16.4953 20.669 16.8218 20.6667 17.16V20.6667C20.6667 21.0203 20.5262 21.3594 20.2762 21.6095C20.0261 21.8595 19.687 22 19.3334 22H4.66671C4.31309 22 3.97395 21.8595 3.7239 21.6095C3.47385 21.3594 3.33338 21.0203 3.33338 20.6667V17.16C3.33285 16.8209 3.46158 16.4942 3.69338 16.2467C4.7625 15.1167 6.05086 14.2166 7.47968 13.6015C8.9085 12.9863 10.4478 12.6691 12.0034 12.6691C13.559 12.6691 15.0982 12.9863 16.5271 13.6015ZM4.66671 17.1533V20.6667H19.3334V17.1533C18.3886 16.1585 17.2512 15.3662 15.9905 14.8249C14.7298 14.2835 13.3721 14.0043 12 14.0043C10.628 14.0043 9.27033 14.2835 8.00961 14.8249C6.7489 15.3662 5.61153 16.1585 4.66671 17.1533Z" />
</svg>
