<svg width="36" height="36" viewBox="0 0 36 36" fill="none" xmlns="http://www.w3.org/2000/svg">
<g clip-path="url(#clip0_119_53)">
<path d="M13.48 29.52L25.4 18L13.48 6.48C13.1551 6.16705 12.7192 5.99597 12.2682 6.00441C11.8172 6.01285 11.388 6.20011 11.075 6.525C10.762 6.84989 10.591 7.2858 10.5994 7.73682C10.6078 8.18785 10.7951 8.61705 11.12 8.93L20.51 18L11.12 27.08C10.7951 27.393 10.6078 27.8222 10.5994 28.2732C10.591 28.7242 10.762 29.1601 11.075 29.485C11.388 29.8099 11.8172 29.9972 12.2682 30.0056C12.7192 30.014 13.1551 29.843 13.48 29.53L13.48 29.52Z"/>
</g>
<defs>
<clipPath id="clip0_119_53">
<rect width="36" height="36" fill="white" transform="translate(36) rotate(90)"/>
</clipPath>
</defs>
</svg>
